<svg xmlns="http://www.w3.org/2000/svg" viewBox="0 0 359.86 359.86"><defs><style>.cls-1{fill:#22ca65;}</style></defs><title>icone</title><g id="Camada_2" data-name="Camada 2"><g id="Camada_3" data-name="Camada 3"><g id="icone"><rect class="cls-1" x="194.99" y="110.24" width="81.78" height="27.49" transform="translate(-18.59 203.1) rotate(-45)"/><rect class="cls-1" x="-27.58" y="86.01" width="254.66" height="27.49" transform="translate(240.83 99.75) rotate(135)"/><rect class="cls-1" x="132.78" y="246.36" width="254.66" height="27.49" transform="translate(627.95 260.11) rotate(135)"/><rect class="cls-1" x="-27.58" y="246.36" width="254.66" height="27.49" transform="translate(-13.63 514.57) rotate(-135)"/><rect class="cls-1" x="132.78" y="86.01" width="254.66" height="27.49" transform="translate(373.49 354.22) rotate(-135)"/><rect class="cls-1" x="147.38" y="129.44" width="138.6" height="27.49" transform="translate(268.66 397.64) rotate(-135)"/><rect class="cls-1" x="74.48" y="202.34" width="138.6" height="27.49" transform="translate(92.65 470.55) rotate(-135)"/><rect class="cls-1" x="75.66" y="126.55" width="130.54" height="27.49" transform="translate(-57.93 140.74) rotate(-45)"/><rect class="cls-1" x="153.82" y="205.35" width="130.54" height="27.49" transform="translate(-90.75 219.09) rotate(-45)"/><rect class="cls-1" x="82.64" y="222.59" width="81.78" height="27.49" transform="translate(-130.93 156.57) rotate(-45)"/></g></g></g></svg>