<svg xmlns="http://www.w3.org/2000/svg" viewBox="0 0 1341.75 394.72"><defs><style>.cls-1{fill:#22ca65;}.cls-2,.cls-3,.cls-4,.cls-7{fill:#fff;}.cls-3{font-size:229.47px;}.cls-3,.cls-4,.cls-7{font-family:NunitoSans-Regular, Nunito Sans;}.cls-4{font-size:108.36px;}.cls-5{letter-spacing:0em;}.cls-6{letter-spacing:-0.01em;}.cls-7{font-size:62px;}</style></defs><title>Camada 32</title><g id="Camada_2" data-name="Camada 2"><g id="Camada_3" data-name="Camada 3"><g id="icone"><rect class="cls-1" x="194.99" y="144.36" width="81.78" height="27.49" transform="translate(-42.71 213.1) rotate(-45)"/><rect class="cls-1" x="-27.58" y="120.13" width="254.66" height="27.49" transform="translate(264.95 157.99) rotate(135)"/><rect class="cls-1" x="132.78" y="280.48" width="254.66" height="27.49" transform="translate(652.08 318.35) rotate(135)"/><rect class="cls-1" x="-27.58" y="280.48" width="254.66" height="27.49" transform="translate(-37.75 572.81) rotate(-135)"/><rect class="cls-1" x="132.78" y="120.13" width="254.66" height="27.49" transform="translate(349.37 412.46) rotate(-135)"/><rect class="cls-1" x="147.38" y="163.55" width="138.6" height="27.49" transform="translate(244.53 455.88) rotate(-135)"/><rect class="cls-1" x="74.48" y="236.46" width="138.6" height="27.49" transform="translate(68.52 528.79) rotate(-135)"/><rect class="cls-1" x="75.66" y="160.66" width="130.54" height="27.49" transform="translate(-82.05 150.73) rotate(-45)"/><rect class="cls-1" x="153.82" y="239.47" width="130.54" height="27.49" transform="translate(-114.88 229.09) rotate(-45)"/><rect class="cls-1" x="82.64" y="256.7" width="81.78" height="27.49" transform="translate(-155.06 166.56) rotate(-45)"/></g><rect class="cls-2" x="429.92" y="31.98" width="10.76" height="362.73"/><text class="cls-3" transform="translate(508.21 195.62)">KM</text><text class="cls-4" transform="translate(518.86 300.56)"><tspan class="cls-5">K</tspan><tspan x="67.51" y="0">eniato Montei</tspan><tspan class="cls-6" x="725.58" y="0">r</tspan><tspan x="762.75" y="0">o</tspan></text><text class="cls-7" transform="translate(522.96 374.62)">Engenharia ocupacional</text></g></g></svg>